<svg width="24" height="24" viewBox="0 0 24 24" fill="none" xmlns="http://www.w3.org/2000/svg">
<path d="M8.21406 19.3248C8.21406 19.424 8.10625 19.5034 7.97031 19.5034C7.81562 19.5183 7.70781 19.4389 7.70781 19.3248C7.70781 19.2255 7.81563 19.1461 7.95156 19.1461C8.09219 19.1312 8.21406 19.2106 8.21406 19.3248ZM6.75625 19.1014C6.72344 19.2007 6.81719 19.3148 6.95781 19.3446C7.07969 19.3942 7.22031 19.3446 7.24844 19.2454C7.27656 19.1461 7.1875 19.032 7.04688 18.9873C6.925 18.9526 6.78906 19.0022 6.75625 19.1014ZM8.82812 19.0171C8.69219 19.0518 8.59844 19.1461 8.6125 19.2603C8.62656 19.3595 8.74844 19.424 8.88906 19.3893C9.025 19.3545 9.11875 19.2603 9.10469 19.161C9.09062 19.0667 8.96406 19.0022 8.82812 19.0171ZM11.9125 0C5.41094 0 0.4375 5.22573 0.4375 12.109C0.4375 17.6126 3.70938 22.3222 8.38281 23.9798C8.98281 24.0939 9.19375 23.7019 9.19375 23.3793C9.19375 23.0716 9.17969 21.3744 9.17969 20.3322C9.17969 20.3322 5.89844 21.0766 5.20938 18.8533C5.20938 18.8533 4.675 17.4092 3.90625 17.037C3.90625 17.037 2.83281 16.2578 3.98125 16.2727C3.98125 16.2727 5.14844 16.372 5.79062 17.5531C6.81719 19.4687 8.5375 18.9178 9.20781 18.5903C9.31563 17.7963 9.62031 17.2454 9.95781 16.9179C7.3375 16.6102 4.69375 16.2082 4.69375 11.4341C4.69375 10.0693 5.05 9.38447 5.8 8.51103C5.67812 8.18846 5.27969 6.85846 5.92188 5.14136C6.90156 4.81878 9.15625 6.48129 9.15625 6.48129C10.0938 6.20338 11.1016 6.05946 12.1 6.05946C13.0984 6.05946 14.1063 6.20338 15.0438 6.48129C15.0438 6.48129 17.2984 4.81382 18.2781 5.14136C18.9203 6.86342 18.5219 8.18846 18.4 8.51103C19.15 9.38943 19.6094 10.0743 19.6094 11.4341C19.6094 16.2231 16.8484 16.6052 14.2281 16.9179C14.6594 17.3099 15.025 18.0543 15.025 19.2205C15.025 20.893 15.0109 22.9624 15.0109 23.3694C15.0109 23.6919 15.2266 24.084 15.8219 23.9699C20.5094 22.3222 23.6875 17.6126 23.6875 12.109C23.6875 5.22573 18.4141 0 11.9125 0ZM4.99375 17.1164C4.93281 17.166 4.94688 17.2801 5.02656 17.3744C5.10156 17.4538 5.20937 17.4886 5.27031 17.424C5.33125 17.3744 5.31719 17.2603 5.2375 17.166C5.1625 17.0866 5.05469 17.0518 4.99375 17.1164ZM4.4875 16.7144C4.45469 16.7789 4.50156 16.8583 4.59531 16.9079C4.67031 16.9576 4.76406 16.9427 4.79688 16.8732C4.82969 16.8087 4.78281 16.7293 4.68906 16.6796C4.59531 16.6499 4.52031 16.6648 4.4875 16.7144ZM6.00625 18.4811C5.93125 18.5456 5.95937 18.6945 6.06719 18.7888C6.175 18.9029 6.31094 18.9178 6.37187 18.8384C6.43281 18.7739 6.40469 18.625 6.31094 18.5307C6.20781 18.4166 6.06719 18.4017 6.00625 18.4811ZM5.47188 17.7516C5.39687 17.8012 5.39687 17.9302 5.47188 18.0444C5.54688 18.1585 5.67344 18.2082 5.73438 18.1585C5.80937 18.094 5.80937 17.965 5.73438 17.8508C5.66875 17.7367 5.54688 17.6871 5.47188 17.7516Z" fill="#1A1C1B"/>
</svg>
