<svg width="25" height="24" viewBox="0 0 25 24" fill="none" xmlns="http://www.w3.org/2000/svg">
<path d="M22.4107 0H1.83393C0.891071 0 0.125 0.776786 0.125 1.73036V22.2696C0.125 23.2232 0.891071 24 1.83393 24H22.4107C23.3536 24 24.125 23.2232 24.125 22.2696V1.73036C24.125 0.776786 23.3536 0 22.4107 0ZM7.37857 20.5714H3.82143V9.11786H7.38393V20.5714H7.37857ZM5.6 7.55357C4.45893 7.55357 3.5375 6.62679 3.5375 5.49107C3.5375 4.35536 4.45893 3.42857 5.6 3.42857C6.73571 3.42857 7.6625 4.35536 7.6625 5.49107C7.6625 6.63214 6.74107 7.55357 5.6 7.55357ZM20.7125 20.5714H17.1554V15C17.1554 13.6714 17.1286 11.9625 15.3071 11.9625C13.4536 11.9625 13.1696 13.4089 13.1696 14.9036V20.5714H9.6125V9.11786H13.025V10.6821H13.0732C13.55 9.78214 14.7125 8.83393 16.4429 8.83393C20.0429 8.83393 20.7125 11.2071 20.7125 14.2929V20.5714Z" fill="#1A1C1B"/>
</svg>
